<?xml version="1.0" encoding="utf-8"?>
<!-- Generator: Adobe Illustrator 15.0.0, SVG Export Plug-In . SVG Version: 6.00 Build 0)  -->
<!DOCTYPE svg PUBLIC "-//W3C//DTD SVG 1.1//EN" "http://www.w3.org/Graphics/SVG/1.1/DTD/svg11.dtd">
<svg version="1.1" xmlns="http://www.w3.org/2000/svg" xmlns:xlink="http://www.w3.org/1999/xlink" x="0px" y="0px"
	 width="297.638px" height="99.213px" viewBox="0 0 297.638 99.213" enable-background="new 0 0 297.638 99.213"
	 xml:space="preserve">
<g id="Capa_1" display="none">
	<rect x="10.087" y="12.471" display="inline" fill="#378FFF" width="68.903" height="19.966"/>
	<rect x="10.088" y="39.426" display="inline" fill="#334F8D" width="68.902" height="19.968"/>
	<rect x="10.087" y="66.383" display="inline" fill="#FF3D3D" width="68.903" height="19.965"/>
</g>
<g id="Capa_2" display="none">
	<rect x="78.99" y="12.518" display="inline" fill="none" width="213.859" height="76.753"/>
	<text transform="matrix(1 0 0 1 78.9897 86.9805)" display="inline" fill="#F6F6F6" font-family="'Arial-BoldMT'" font-size="104">PRS</text>
</g>
<g id="Capa_1_copia">
	<rect x="10.087" y="12.471" fill="#7C868D" width="68.903" height="19.966"/>
	<rect x="10.088" y="39.426" fill="#7C868D" width="68.902" height="19.968"/>
	<rect x="10.087" y="66.383" fill="#7C868D" width="68.903" height="19.965"/>
</g>
<g id="Capa_2_copia">
	<g>
		<path fill="#7C868D" d="M86.556,86.98V12.535h24.121c9.141,0,15.099,0.373,17.875,1.117c4.266,1.117,7.837,3.547,10.715,7.287
			c2.877,3.741,4.316,8.574,4.316,14.498c0,4.57-0.83,8.413-2.488,11.527c-1.659,3.115-3.767,5.561-6.322,7.338
			c-2.557,1.777-5.154,2.954-7.795,3.529c-3.589,0.711-8.785,1.066-15.59,1.066h-9.801V86.98H86.556z M101.587,25.129v21.125h8.227
			c5.924,0,9.885-0.389,11.883-1.168c1.997-0.778,3.563-1.997,4.697-3.656c1.134-1.658,1.701-3.588,1.701-5.789
			c0-2.708-0.796-4.942-2.387-6.703c-1.592-1.76-3.605-2.86-6.043-3.301c-1.795-0.338-5.4-0.508-10.816-0.508H101.587z"/>
		<path fill="#7C868D" d="M155.974,86.98V12.535h31.637c7.955,0,13.737,0.669,17.343,2.006c3.605,1.338,6.49,3.716,8.658,7.135
			c2.166,3.42,3.25,7.33,3.25,11.73c0,5.586-1.643,10.199-4.926,13.838c-3.285,3.64-8.193,5.934-14.727,6.881
			c3.25,1.896,5.932,3.979,8.049,6.246c2.115,2.269,4.967,6.297,8.557,12.086l9.09,14.523h-17.977L194.06,70.781
			c-3.859-5.789-6.5-9.437-7.922-10.943c-1.422-1.506-2.929-2.539-4.52-3.098c-1.592-0.559-4.113-0.838-7.566-0.838h-3.047V86.98
			H155.974z M171.005,44.02h11.121c7.211,0,11.713-0.305,13.508-0.914c1.794-0.609,3.2-1.658,4.216-3.148
			c1.016-1.489,1.523-3.352,1.523-5.586c0-2.505-0.67-4.527-2.006-6.068c-1.338-1.54-3.226-2.514-5.663-2.92
			c-1.219-0.169-4.875-0.254-10.969-0.254h-11.73V44.02z"/>
		<path fill="#7C868D" d="M227.221,62.758l14.625-1.422c0.879,4.909,2.666,8.515,5.357,10.816c2.691,2.303,6.322,3.453,10.893,3.453
			c4.84,0,8.488-1.023,10.943-3.072c2.453-2.048,3.682-4.443,3.682-7.186c0-1.76-0.518-3.258-1.549-4.494
			c-1.033-1.235-2.836-2.311-5.408-3.225c-1.762-0.609-5.773-1.692-12.035-3.25c-8.059-1.997-13.711-4.451-16.961-7.363
			c-4.57-4.096-6.855-9.09-6.855-14.98c0-3.791,1.074-7.338,3.225-10.639c2.148-3.301,5.246-5.814,9.293-7.541
			c4.045-1.727,8.928-2.59,14.65-2.59c9.344,0,16.377,2.049,21.1,6.145c4.723,4.097,7.201,9.564,7.439,16.402l-15.031,0.66
			c-0.645-3.825-2.023-6.576-4.139-8.252c-2.117-1.676-5.291-2.514-9.521-2.514c-4.367,0-7.787,0.897-10.258,2.691
			c-1.592,1.151-2.387,2.691-2.387,4.621c0,1.761,0.744,3.268,2.234,4.52c1.895,1.592,6.5,3.25,13.813,4.977
			s12.721,3.513,16.225,5.357c3.504,1.846,6.246,4.367,8.227,7.566s2.971,7.152,2.971,11.857c0,4.266-1.186,8.261-3.555,11.984
			c-2.371,3.725-5.723,6.492-10.055,8.303c-4.334,1.811-9.734,2.717-16.199,2.717c-9.412,0-16.641-2.175-21.684-6.525
			C231.215,77.426,228.202,71.086,227.221,62.758z"/>
	</g>
</g>
</svg>
